<svg xmlns="http://www.w3.org/2000/svg" version="1.1" xmlns:xlink="http://www.w3.org/1999/xlink" xmlns:svgjs="http://svgjs.dev/svgjs" width="128" height="128" viewBox="0 0 128 128"><g transform="matrix(0.8046875,0,0,0.8046875,12.221578124999994,16.49205152212923)"><svg viewBox="0 0 96 89" data-background-color="#ffffff" preserveAspectRatio="xMidYMid meet" height="118" width="128" xmlns="http://www.w3.org/2000/svg" xmlns:xlink="http://www.w3.org/1999/xlink"><g id="tight-bounds" transform="matrix(1,0,0,1,0.25950000000000273,0.029418221153846957)"><svg viewBox="0 0 95.48100000000001 88.9411635576923" height="88.9411635576923" width="95.48100000000001"><g><svg viewBox="0 0 95.48100000000001 88.9411635576923" height="88.9411635576923" width="95.48100000000001"><g><svg viewBox="0 0 95.48100000000001 88.9411635576923" height="88.9411635576923" width="95.48100000000001"><g id="textblocktransform"><svg viewBox="0 0 95.48100000000001 88.9411635576923" height="88.9411635576923" width="95.48100000000001" id="textblock"><g><svg viewBox="0 0 95.48100000000001 88.9411635576923" height="88.9411635576923" width="95.48100000000001"><g><svg viewBox="0 0 95.48100000000001 88.9411635576923" height="88.9411635576923" width="95.48100000000001"><g><svg xmlns="http://www.w3.org/2000/svg" xmlns:xlink="http://www.w3.org/1999/xlink" version="1.1" x="0" y="0" viewBox="2.878 9.209 93.6 87.189" enable-background="new 0 0 100 100" xml:space="preserve" height="88.9411635576923" width="95.48100000000001" class="icon-icon-0" data-fill-palette-color="accent" id="icon-0"><g fill="#2257bf" data-fill-palette-color="accent"><path d="M52.193 21.983A1 1 0 0 0 53.193 20.983V19.875L51.051 18.692A2.84 2.84 0 0 0 48.301 18.692L41.163 22.635V22.906H40.671L38.851 23.911V26.184A1 1 0 0 0 39.851 27.184H41.344C41.577 29.477 42.15 31.291 43.802 32.942 45.683 34.824 48.114 35.819 50.831 35.819 55.917 35.819 59.617 32.647 60.486 27.542A0.997 0.997 0 0 0 59.5 26.374H55.794C55.33 26.374 54.928 26.693 54.82 27.144 54.519 28.418 53.6 30.556 50.83 30.556 49.716 30.556 48.73 30.144 47.994 29.38 47.515 28.863 47.233 28.362 47.07 27.185H52.19A1 1 0 0 0 53.19 26.185V23.907A1 1 0 0 0 52.19 22.907H46.833V21.983z" fill="#2257bf" data-fill-palette-color="accent"></path><path d="M94.296 42.581L55.193 20.98V20.983A3 3 0 0 1 54.812 22.445C55.054 22.878 55.193 23.377 55.193 23.907V24.435C55.388 24.395 55.59 24.374 55.797 24.374H59.503A3 3 0 0 1 62.46 27.877C61.432 33.917 56.868 37.819 50.833 37.819 47.573 37.819 44.653 36.621 42.39 34.357 40.714 32.683 39.982 30.876 39.624 29.175A3.003 3.003 0 0 1 36.853 26.184V25.016L4.903 42.667A2.843 2.843 0 0 0 6.278 48H93.088A2.844 2.844 0 0 0 94.296 42.581" fill="#2257bf" data-fill-palette-color="accent"></path></g><path d="M94.982 88.495H92.55V84.628C92.55 83.803 91.88 83.133 91.056 83.133H86.874V53.814C86.874 53.075 86.274 52.475 85.535 52.475H80.067C79.327 52.475 78.727 53.075 78.727 53.814V83.132H67.82V54.065C67.82 53.327 67.22 52.726 66.481 52.726H61.013C60.273 52.726 59.673 53.327 59.673 54.065V83.132H39.68V53.814C39.68 53.075 39.08 52.475 38.341 52.475H32.873C32.134 52.475 31.535 53.075 31.535 53.814V83.132H20.626V54.065C20.626 53.327 20.026 52.726 19.287 52.726H13.819A1.34 1.34 0 0 0 12.481 54.065V83.132H8.298C7.473 83.132 6.804 83.802 6.804 84.627V88.494H4.372C3.547 88.494 2.878 89.164 2.878 89.989V94.905C2.878 95.73 3.546 96.398 4.372 96.398H94.983C95.809 96.398 96.478 95.73 96.478 94.905V89.99C96.478 89.165 95.809 88.495 94.982 88.495" fill="#2257bf" data-fill-palette-color="accent"></path><path d="M60.268 26.73A1 1 0 0 0 59.503 26.375H55.797C55.333 26.375 54.931 26.694 54.823 27.145 54.522 28.419 53.603 30.557 50.833 30.557 49.719 30.557 48.733 30.145 47.997 29.381 47.518 28.864 47.236 28.363 47.073 27.186H52.193A1 1 0 0 0 53.193 26.186V23.908A1 1 0 0 0 52.193 22.908H46.836V21.984H52.193A1 1 0 0 0 53.193 20.984V18.707A1 1 0 0 0 52.193 17.707H47.08C47.243 16.613 47.519 16.143 47.984 15.66 48.732 14.883 49.717 14.472 50.833 14.472 53.574 14.472 54.488 16.609 54.789 17.884 54.896 18.335 55.299 18.654 55.763 18.654H59.503A1 1 0 0 0 60.489 17.486C59.62 12.381 55.92 9.209 50.834 9.209 48.117 9.209 45.687 10.204 43.805 12.085 42.172 13.718 41.588 15.539 41.351 17.708H39.854A1 1 0 0 0 38.854 18.708V20.985A1 1 0 0 0 39.854 21.985H41.166V22.909H39.854A1 1 0 0 0 38.854 23.909V26.187A1 1 0 0 0 39.854 27.187H41.347C41.58 29.48 42.153 31.294 43.805 32.945 45.686 34.827 48.117 35.822 50.834 35.822 55.92 35.822 59.62 32.65 60.489 27.545A1 1 0 0 0 60.268 26.73" fill="#2257bf" data-fill-palette-color="accent"></path><path d="M60.268 26.73A1 1 0 0 0 59.503 26.375H55.797C55.333 26.375 54.931 26.694 54.823 27.145 54.522 28.419 53.603 30.557 50.833 30.557 49.719 30.557 48.733 30.145 47.997 29.381 47.518 28.864 47.236 28.363 47.073 27.186H52.193A1 1 0 0 0 53.193 26.186V23.908A1 1 0 0 0 52.193 22.908H46.836V21.984H52.193A1 1 0 0 0 53.193 20.984V18.707A1 1 0 0 0 52.193 17.707H47.08C47.243 16.613 47.519 16.143 47.984 15.66 48.732 14.883 49.717 14.472 50.833 14.472 53.574 14.472 54.488 16.609 54.789 17.884 54.896 18.335 55.299 18.654 55.763 18.654H59.503A1 1 0 0 0 60.489 17.486C59.62 12.381 55.92 9.209 50.834 9.209 48.117 9.209 45.687 10.204 43.805 12.085 42.172 13.718 41.588 15.539 41.351 17.708H39.854A1 1 0 0 0 38.854 18.708V20.985A1 1 0 0 0 39.854 21.985H41.166V22.909H39.854A1 1 0 0 0 38.854 23.909V26.187A1 1 0 0 0 39.854 27.187H41.347C41.58 29.48 42.153 31.294 43.805 32.945 45.686 34.827 48.117 35.822 50.834 35.822 55.92 35.822 59.62 32.65 60.489 27.545A1 1 0 0 0 60.268 26.73" fill="#2257bf" data-fill-palette-color="accent"></path></svg></g></svg></g></svg></g></svg></g></svg></g></svg></g><defs></defs></svg><rect width="95.48100000000001" height="88.9411635576923" fill="none" stroke="none" visibility="hidden"></rect></g></svg></g></svg>